<svg class="svg_img" version="1.1" id="Layer_1" xmlns="http://www.w3.org/2000/svg" xmlns:xlink="http://www.w3.org/1999/xlink" x="0px" y="0px"
	 width="28px" height="28px" viewBox="0 0 50 50" enable-background="new 0 0 50 50" xml:space="preserve">
<g>
	<path d="M14.902,42.329c-0.845,0.846-2.229,0.846-3.074,0l-3.053-3.053c-0.846-0.846-0.845-2.229,0-3.074
		L37.432,7.544c0.846-0.846,2.229-0.845,3.074,0l3.054,3.054c0.846,0.845,0.845,2.229,0,3.074L14.902,42.329z"/>
</g>
<g>
	<path d="M8.774,13.673c-0.846-0.846-0.845-2.23,0-3.074l3.054-3.054c0.846-0.846,2.229-0.845,3.074,0L43.56,36.203
		c0.845,0.844,0.846,2.229,0,3.074l-3.054,3.054c-0.844,0.845-2.229,0.845-3.074,0L8.774,13.673z"/>
</g>
</svg>
