<?xml version="1.0" encoding="utf-8"?>
<!-- Svg Vector Icons : http://www.onlinewebfonts.com/icon -->
<!DOCTYPE svg PUBLIC "-//W3C//DTD SVG 1.1//EN" "http://www.w3.org/Graphics/SVG/1.1/DTD/svg11.dtd">
<svg version="1.1" xmlns="http://www.w3.org/2000/svg" xmlns:xlink="http://www.w3.org/1999/xlink" x="0px" y="0px" viewBox="0 0 1000 1000" enable-background="new 0 0 1000 1000" xml:space="preserve">
<metadata> Svg Vector Icons : http://www.onlinewebfonts.com/icon </metadata>
<g><path d="M377.5,71.3H990v122.5H377.5V71.3z M377.5,438.8H990v122.5H377.5V438.8z M377.5,806.3H990v122.5H377.5V806.3z M10,132.5C10,64.8,64.8,10,132.5,10S255,64.8,255,132.5S200.2,255,132.5,255S10,200.2,10,132.5z M10,500c0-67.7,54.8-122.5,122.5-122.5S255,432.3,255,500s-54.8,122.5-122.5,122.5S10,567.7,10,500z M10,867.5C10,799.8,64.8,745,132.5,745S255,799.8,255,867.5S200.2,990,132.5,990S10,935.2,10,867.5z"/></g>
</svg>