<?xml version="1.0" ?>
<!DOCTYPE svg  PUBLIC '-//W3C//DTD SVG 1.1//EN'  'http://www.w3.org/Graphics/SVG/1.1/DTD/svg11.dtd'><svg height="8.066mm" style="shape-rendering:geometricPrecision; text-rendering:geometricPrecision; image-rendering:optimizeQuality; fill-rule:evenodd; clip-rule:evenodd" version="1.1" viewBox="0 0 34899 34899" width="8.066mm" xml:space="preserve" xmlns="http://www.w3.org/2000/svg" xmlns:xlink="http://www.w3.org/1999/xlink"><defs><style type="text/css">
   <![CDATA[
    .fil0 {fill:black}
   ]]>
  </style></defs><g id="Layer_x0020_1"><path class="fil0" d="M1964 9415c4437,-8553 14968,-11889 23520,-7451 390,202 768,417 1135,643l-3336 2132 -4 -1 -6716 4291 -133 -5529c-1091,80 -2167,288 -3204,617 -3411,1081 -6411,3464 -8190,6892 -1778,3428 -2000,7253 -919,10664 789,2488 2270,4757 4343,6493l-3029 1935c-5495,-5215 -7131,-13625 -3467,-20686zm6409 22874l31 2 -61 39c348,213 705,415 1072,605 8553,4438 19083,1102 23520,-7451 3653,-7040 2038,-15420 -3419,-20639l-3024 1933c2046,1730 3509,3981 4290,6448 1081,3411 860,7236 -919,10664 -1779,3428 -4778,5811 -8190,6892 -1072,340 -2186,551 -3315,625l37 -5522 -10022 6404z"/></g></svg>